<mxfile host="app.diagrams.net" modified="2023-07-14T14:20:25.226Z" agent="Mozilla/5.0 (Windows NT 10.0; Win64; x64) AppleWebKit/537.36 (KHTML, like Gecko) Chrome/114.0.0.0 Safari/537.36" etag="rQaFF9kGLnOR5SgfMFdE" version="21.6.1" type="github">
  <diagram name="第 1 页" id="UPnyf5G9OjypIOcmCuHO">
    <mxGraphModel dx="711" dy="1115" grid="1" gridSize="10" guides="1" tooltips="1" connect="1" arrows="1" fold="1" page="1" pageScale="1" pageWidth="827" pageHeight="1169" math="0" shadow="0">
      <root>
        <mxCell id="0" />
        <mxCell id="1" parent="0" />
        <mxCell id="OdCj0RKj894pAElgkvcP-6" style="edgeStyle=orthogonalEdgeStyle;rounded=0;orthogonalLoop=1;jettySize=auto;html=1;exitX=1;exitY=0.5;exitDx=0;exitDy=0;entryX=0;entryY=0.5;entryDx=0;entryDy=0;" edge="1" parent="1" source="OdCj0RKj894pAElgkvcP-2" target="OdCj0RKj894pAElgkvcP-3">
          <mxGeometry relative="1" as="geometry" />
        </mxCell>
        <mxCell id="OdCj0RKj894pAElgkvcP-2" value="生产者&lt;br&gt;" style="ellipse;whiteSpace=wrap;html=1;aspect=fixed;" vertex="1" parent="1">
          <mxGeometry x="50" y="280" width="80" height="80" as="geometry" />
        </mxCell>
        <mxCell id="OdCj0RKj894pAElgkvcP-7" style="edgeStyle=orthogonalEdgeStyle;rounded=0;orthogonalLoop=1;jettySize=auto;html=1;exitX=1;exitY=0.5;exitDx=0;exitDy=0;entryX=0;entryY=0.5;entryDx=0;entryDy=0;" edge="1" parent="1" source="OdCj0RKj894pAElgkvcP-3" target="OdCj0RKj894pAElgkvcP-4">
          <mxGeometry relative="1" as="geometry" />
        </mxCell>
        <mxCell id="OdCj0RKj894pAElgkvcP-3" value="交换机 exchange" style="rounded=1;whiteSpace=wrap;html=1;" vertex="1" parent="1">
          <mxGeometry x="180" y="290" width="120" height="60" as="geometry" />
        </mxCell>
        <mxCell id="OdCj0RKj894pAElgkvcP-8" style="edgeStyle=orthogonalEdgeStyle;rounded=0;orthogonalLoop=1;jettySize=auto;html=1;exitX=1;exitY=0.5;exitDx=0;exitDy=0;entryX=0;entryY=0.5;entryDx=0;entryDy=0;" edge="1" parent="1" source="OdCj0RKj894pAElgkvcP-4" target="OdCj0RKj894pAElgkvcP-5">
          <mxGeometry relative="1" as="geometry" />
        </mxCell>
        <mxCell id="OdCj0RKj894pAElgkvcP-4" value="队列 sequen" style="rounded=1;whiteSpace=wrap;html=1;" vertex="1" parent="1">
          <mxGeometry x="360" y="290" width="120" height="60" as="geometry" />
        </mxCell>
        <mxCell id="OdCj0RKj894pAElgkvcP-5" value="消费者" style="ellipse;whiteSpace=wrap;html=1;aspect=fixed;" vertex="1" parent="1">
          <mxGeometry x="550" y="280" width="80" height="80" as="geometry" />
        </mxCell>
      </root>
    </mxGraphModel>
  </diagram>
</mxfile>
